<svg width="32" height="32" viewBox="0 0 50 47" fill="none" xmlns="http://www.w3.org/2000/svg">
<path d="M25.4001 1C24.0001 1 22.8001 2.2 22.8001 3.6C22.8001 5.1 23.8343 5.9 25.3001 5.9H28.7001C28.7001 5.9 31.3001 5.9 31.3001 8.3C31.3001 10.7 28.7001 10.7 28.7001 10.7H8.30008C6.90008 10.7 5.70008 11.9 5.70008 13.3C5.70008 14.7 6.90008 15.9 8.30008 15.9H22.5001C22.5001 15.9 25.1001 15.9 25.1001 18.3C25.1001 20.7 22.5001 20.7 22.5001 20.7H11.4001C10.0001 20.7 8.80008 21.9 8.80008 23.3C8.80008 24.7 10.0001 25.9 11.4001 25.9H22.6001C22.6001 25.9 25.2001 25.9 25.2001 28.3C25.2001 30.7 22.6001 30.7 22.6001 30.7H21.8001C20.4001 30.7 19.2001 31.9 19.2001 33.3C19.2001 34.7 20.4001 35.9 21.8001 35.9H28.8001C28.8001 35.9 31.4001 35.9 31.4001 38.3C31.4001 40.7 28.8001 40.7 28.8001 40.7H14.0001C12.6001 40.7 11.4001 41.9 11.4001 43.3C11.4001 44.7 12.6001 45.9 14.0001 45.9H34.3001C36.5001 45.9 38.4001 44.8 39.5001 43C41.1501 40.25 42.7751 37.4999 44.4001 34.7499C46.0251 31.9999 47.6501 29.25 49.3001 26.5C50.4001 24.6 50.4001 22.3 49.3001 20.4C47.6501 17.6501 46.0252 14.9001 44.4002 12.1502C42.7752 9.4002 41.1501 6.65001 39.5001 3.9C38.4001 2.1 36.4001 1 34.3001 1H25.4001Z" fill="url(#fg)"/>
<path d="M11.3999 3.6C11.3999 2.2 12.5999 1 13.9999 1H17.5999C18.9999 1 20.1999 2.2 20.1999 3.6C20.1999 5 18.9999 6.2 17.5999 6.2H13.9999C12.5999 6.2 11.3999 5 11.3999 3.6Z" fill="url(#fg)"/>
<path d="M0 23.5001C0 22.1001 1.2 20.9001 2.6 20.9001H3.6C5 20.9001 6.2 22.1001 6.2 23.5001C6.2 24.9001 5 26.1001 3.6 26.1001H2.6C1.2 26.1001 0 24.9001 0 23.5001Z" fill="url(#fg)"/>
<path d="M8.30008 30.8001C6.90008 30.8001 5.70008 32.0001 5.70008 33.4001C5.70008 34.9001 6.90008 36.1001 8.30008 36.0001H14.0001C15.4001 36.0001 16.6001 34.8001 16.6001 33.4001C16.6001 32.0001 15.4001 30.8001 14.0001 30.8001H8.30008Z" fill="url(#fg)"/>
<defs>
<linearGradient id="fg" x1="0" y1="33" x2="50" y2="33" gradientUnits="userSpaceOnUse">
<stop stop-color="#8032FF"/>
<stop offset="1" stop-color="#FF3D00"/>
</linearGradient>
</defs>
</svg>
